<?xml version="1.0" encoding="utf-8"?>
<!-- Generator: Adobe Illustrator 16.0.0, SVG Export Plug-In . SVG Version: 6.00 Build 0)  -->
<!DOCTYPE svg PUBLIC "-//W3C//DTD SVG 1.1//EN" "http://www.w3.org/Graphics/SVG/1.1/DTD/svg11.dtd">
<svg version="1.1" id="Layer_1" xmlns="http://www.w3.org/2000/svg" xmlns:xlink="http://www.w3.org/1999/xlink" x="0px" y="0px" width="90px" height="90px" viewBox="0 0 90 90" enable-background="new 0 0 90 90" xml:space="preserve">
<g>
	<path fill-rule="evenodd" clip-rule="evenodd" fill="#CECBC6" d="M20,1c-1.1,0-2,0.9-2,2v3h54V3c0-1.1-0.9-2-2-2H20z"/>
	<path fill-rule="evenodd" clip-rule="evenodd" fill="#B4B2AE" d="M79.5,27.08v7.89l5.82,10.42H4.68l5.82-10.42v-7.89L0,45.39V82
		c0,4.42,3.58,8,8,8h74c4.42,0,8-3.58,8-8V45.39L79.5,27.08z"/>
	<path fill-rule="evenodd" clip-rule="evenodd" fill="#CC3300" d="M45,84.27c9.15,0,16.62-7.439,16.62-16.58
		c0-9.129-7.47-16.569-16.62-16.569c-9.15,0-16.62,7.44-16.62,16.569C28.38,76.83,35.85,84.27,45,84.27z"/>
	<path fill-rule="evenodd" clip-rule="evenodd" fill="#FFFFFF" d="M35.34,81.189c2.44-2.64,3.25-3.479,3.9-4.109
		c1.61-1.54,2.94,1.23,6.34-0.109c0.49-0.191,1.311-1.16,2.33-2.381l4.17-4.75l5.311-6.46c0.209-0.59-0.44-0.37-0.641-0.239
		c-1.1,0.68-7.12,6.659-7.67,7.029c-0.59,0.391-1.359,0.58-1.91,0.141c-0.359-0.301-0.48-0.771-0.449-1.23
		c0.069-0.939,2.309-3.48,3.18-4.53c1-1.18,4.07-4.729,4.25-5.95c-0.101-0.029-0.2-0.07-0.301-0.119
		c-0.74,0.029-2.51,1.939-4.369,3.92c-1.83,1.939-3.73,3.949-4.92,4.39c-0.88,0.34-1.49,0.06-1.72-0.899
		c-0.39-1.561,1.8-3.761,2.91-5.141c0.58-0.73,4.38-5.061,3.561-5.76L49.09,55c-0.63,0.24-1.34,1.061-2.01,1.779l-7.46,7.951
		c-1.82,1.859-4.57,4.689-3.32,6.449c0.6,0.83,1.65,2.91,1.07,3.93c-0.28,0.511-1.19,1.601-3.87,4.551
		C33.92,80.1,34.59,80.58,35.34,81.189z"/>
	<path fill-rule="evenodd" clip-rule="evenodd" fill="#CC3300" d="M16,17c-3.31,0-6,2.69-6,6v22h70V23c0-3.31-2.689-6-6-6H16z"/>
	<path fill-rule="evenodd" clip-rule="evenodd" fill="#B4B2AE" d="M16,9c-1.1,0-2,0.9-2,2v3h62v-3c0-1.1-0.9-2-2-2H16z"/>
</g>
</svg>
